<?xml version="1.0" encoding="utf-8"?>
<!-- Generator: Adobe Illustrator 23.1.0, SVG Export Plug-In . SVG Version: 6.00 Build 0)  -->
<svg version="1.1" id="Layer_1" xmlns="http://www.w3.org/2000/svg" xmlns:xlink="http://www.w3.org/1999/xlink" x="0px" y="0px"
	 viewBox="0 0 40 40" style="enable-background:new 0 0 40 40;" xml:space="preserve">
<style type="text/css">
	.st0{fill:url(#SVGID_1_);}
	.st1{fill:#D98119;}
	.st2{fill:url(#SVGID_2_);}
	.st3{fill:#CCCCCC;}
</style>
<g>
	<radialGradient id="SVGID_1_" cx="25.3885" cy="15.6439" r="18.4902" gradientUnits="userSpaceOnUse">
		<stop  offset="0" style="stop-color:#FBE330"/>
		<stop  offset="1" style="stop-color:#E19619"/>
	</radialGradient>
	<polygon class="st0" points="20,29.93 8.58,38.65 12.94,24.54 1.48,15.78 15.65,15.78 20,1.69 24.35,15.78 38.52,15.78 
		27.06,24.54 31.42,38.65 	"/>
	<path class="st1" d="M20,3.39l3.77,12.19l0.22,0.7h0.74h12.32l-10.01,7.65l-0.55,0.42l0.21,0.67l3.8,12.29l-9.87-7.54L20,29.3
		l-0.61,0.46l-9.87,7.54l3.8-12.29l0.21-0.67l-0.55-0.42L2.96,16.28h12.32h0.74l0.22-0.7L20,3.39 M20,0l-4.72,15.28H0l12.36,9.44
		L7.64,40L20,30.56L32.36,40l-4.72-15.28L40,15.28H24.72L20,0L20,0z"/>
</g>
</svg>
